<svg width="632" height="632" viewBox="0 0 632 632" fill="none" xmlns="http://www.w3.org/2000/svg">
<path d="M590.149 399.677H382.992V279.799H590.149V399.677ZM384.256 398.413H588.885V281.063H384.256V398.413Z" fill="#E0E0E0"/>
<path d="M547.413 343.719H410.737V347.726H547.413V343.719Z" fill="#F0F0F0"/>
<path d="M556.83 358.66H410.737V363.033H556.83V358.66Z" fill="#F0F0F0"/>
<path d="M556.83 373.777H410.737V378.151H556.83V373.777Z" fill="#F0F0F0"/>
<path d="M458.503 322.017H410.737V332.419H458.503V322.017Z" fill="#F0F0F0"/>
<path d="M589.517 280.431H383.662V299.517H589.517V280.431Z" fill="#E0E0E0"/>
<path d="M573.679 296.661C573.413 296.408 576.068 293.21 579.594 289.519C583.121 285.828 586.218 283.035 586.471 283.275C586.723 283.515 584.082 286.726 580.555 290.429C577.029 294.133 573.932 296.914 573.679 296.661Z" fill="white"/>
<path d="M586.496 296.661C586.243 296.914 583.159 294.133 579.62 290.429C576.081 286.726 573.439 283.528 573.704 283.275C573.97 283.022 577.041 285.803 580.581 289.519C584.12 293.235 586.736 296.408 586.496 296.661Z" fill="white"/>
<path d="M335.238 43.0392H129.383V161.666H335.238V43.0392Z" fill="#E6E6E6"/>
<path d="M293.147 106.34H156.47V110.347H293.147V106.34Z" fill="#F0F0F0"/>
<path d="M302.564 121.281H156.47V125.654H302.564V121.281Z" fill="#F0F0F0"/>
<path d="M302.564 136.398H156.47V140.772H302.564V136.398Z" fill="#F0F0F0"/>
<path d="M204.237 84.6375H156.47V95.0402H204.237V84.6375Z" fill="#F0F0F0"/>
<path d="M335.238 43.0392H129.383V62.1256H335.238V43.0392Z" fill="#E0E0E0"/>
<path d="M318.705 59.1805C318.439 58.9403 321.094 55.7297 324.62 52.0389C328.147 48.348 331.244 45.5545 331.497 45.8073C331.749 46.0601 329.108 49.2581 325.581 52.9489C322.054 56.6398 318.958 59.408 318.705 59.1805Z" fill="white"/>
<path d="M331.497 59.1805C331.244 59.4333 328.16 56.6525 324.62 52.9489C321.081 49.2454 318.439 46.0601 318.705 45.8073C318.97 45.5545 322.042 48.3353 325.581 52.0389C329.12 55.7424 331.762 58.9403 331.497 59.1805Z" fill="white"/>
<path d="M257.275 263.405H50.1555V143.515H257.275V263.405ZM51.4195 262.141H256.011V144.779H51.4195V262.141Z" fill="#E0E0E0"/>
<path d="M214.551 207.448H77.875V211.455H214.551V207.448Z" fill="#F0F0F0"/>
<path d="M223.968 222.388H77.875V226.762H223.968V222.388Z" fill="#F0F0F0"/>
<path d="M223.968 237.506H77.875V241.879H223.968V237.506Z" fill="#F0F0F0"/>
<path d="M125.642 185.745H77.875V196.147H125.642V185.745Z" fill="#F0F0F0"/>
<path d="M256.643 144.147H50.7876V163.233H256.643V144.147Z" fill="#E0E0E0"/>
<path d="M496.31 290.872H253.242V508.482H496.31V290.872Z" fill="#E6E6E6"/>
<path d="M265.465 222.325H75.0564V420.154H265.465V222.325Z" fill="#F0F0F0"/>
<path d="M265.465 222.325H75.0564V243.876H265.465V222.325Z" fill="#E0E0E0"/>
<path d="M90.7805 232.879C90.7458 233.661 90.4824 234.415 90.023 235.048C89.5636 235.681 88.9283 236.166 88.1961 236.441C87.4639 236.716 86.6669 236.771 85.9041 236.597C85.1413 236.424 84.4463 236.03 83.9053 235.465C83.3642 234.9 83.001 234.188 82.8607 233.419C82.7204 232.649 82.8091 231.855 83.116 231.136C83.4228 230.416 83.9342 229.802 84.5866 229.371C85.2391 228.939 86.0039 228.709 86.7862 228.708C87.868 228.735 88.8953 229.188 89.6437 229.97C90.3922 230.751 90.8008 231.797 90.7805 232.879Z" fill="white"/>
<path d="M106.998 232.879C106.965 233.665 106.703 234.423 106.243 235.06C105.783 235.697 105.146 236.185 104.411 236.463C103.676 236.741 102.875 236.796 102.109 236.623C101.342 236.449 100.644 236.054 100.1 235.486C99.5566 234.919 99.192 234.204 99.0517 233.43C98.9114 232.657 99.0015 231.86 99.311 231.137C99.6204 230.415 100.135 229.799 100.792 229.368C101.449 228.936 102.218 228.706 103.003 228.708C104.085 228.735 105.113 229.188 105.861 229.97C106.609 230.751 107.018 231.797 106.998 232.879Z" fill="white"/>
<path d="M123.215 232.879C123.183 233.665 122.92 234.423 122.46 235.06C122 235.697 121.363 236.185 120.628 236.463C119.893 236.741 119.092 236.796 118.326 236.623C117.559 236.449 116.861 236.054 116.317 235.486C115.774 234.919 115.409 234.204 115.269 233.43C115.128 232.657 115.219 231.86 115.528 231.137C115.837 230.415 116.352 229.799 117.009 229.368C117.666 228.936 118.435 228.706 119.22 228.708C120.302 228.735 121.33 229.188 122.078 229.97C122.826 230.751 123.235 231.797 123.215 232.879Z" fill="white"/>
<path d="M562.96 86.3059H319.893V328.564H562.96V86.3059Z" fill="#F0F0F0"/>
<path d="M562.96 86.3059H319.893V114.683H562.96V86.3059Z" fill="#E0E0E0"/>
<path d="M340.597 100.21C340.553 101.242 340.206 102.237 339.601 103.074C338.995 103.91 338.157 104.55 337.191 104.914C336.225 105.279 335.173 105.351 334.166 105.123C333.159 104.894 332.241 104.375 331.526 103.63C330.812 102.884 330.332 101.946 330.146 100.93C329.961 99.9141 330.078 98.8662 330.482 97.9162C330.887 96.9663 331.562 96.1562 332.423 95.5864C333.284 95.0167 334.294 94.7124 335.327 94.7115C336.754 94.7447 338.109 95.3418 339.097 96.3723C340.085 97.4028 340.625 98.7827 340.597 100.21Z" fill="white"/>
<path d="M360.404 96.4938C361.105 97.2547 361.566 98.2051 361.731 99.2264C361.895 100.248 361.756 101.295 361.329 102.237C360.903 103.18 360.208 103.976 359.332 104.526C358.457 105.077 357.438 105.358 356.404 105.334C355.37 105.31 354.366 104.982 353.516 104.391C352.667 103.8 352.011 102.972 351.629 102.011C351.247 101.05 351.156 99.9971 351.368 98.9846C351.58 97.9721 352.085 97.0443 352.82 96.3168C353.851 95.3365 355.227 94.8047 356.649 94.8378C358.071 94.871 359.421 95.4665 360.404 96.4938Z" fill="white"/>
<path d="M383.295 100.21C383.251 101.242 382.904 102.237 382.298 103.074C381.693 103.91 380.855 104.55 379.889 104.914C378.923 105.279 377.871 105.351 376.864 105.123C375.857 104.894 374.939 104.375 374.224 103.63C373.51 102.884 373.03 101.946 372.844 100.93C372.659 99.9141 372.775 98.8662 373.18 97.9162C373.585 96.9663 374.26 96.1562 375.121 95.5864C375.982 95.0167 376.992 94.7124 378.024 94.7115C379.451 94.7447 380.807 95.3418 381.795 96.3723C382.783 97.4028 383.322 98.7827 383.295 100.21Z" fill="white"/>
<path d="M510.454 572.756C510.454 572.933 422.682 573.085 314.445 573.085C206.209 573.085 118.399 572.933 118.399 572.756C118.399 572.579 206.158 572.428 314.445 572.428C422.732 572.428 510.454 572.592 510.454 572.756Z" fill="#263238"/>
<path d="M469.626 75.4355L463.117 77.7613L460.323 69.2546C455.192 53.5683 438.835 45.2386 423.806 50.5347C408.777 55.8309 400.776 73.0339 405.908 88.7202L408.702 97.2269L402.167 99.5653C399.675 100.532 397.651 102.421 396.517 104.841C395.382 107.261 395.224 110.025 396.074 112.559L414.187 167.91C414.563 169.164 415.188 170.33 416.023 171.338C416.859 172.347 417.888 173.177 419.051 173.779C420.213 174.382 421.485 174.744 422.791 174.846C424.096 174.947 425.409 174.785 426.65 174.369L494.11 150.239C496.635 149.274 498.687 147.368 499.835 144.921C500.983 142.474 501.138 139.677 500.266 137.119L482.14 81.7682C481.754 80.5174 481.12 79.3571 480.277 78.3566C479.433 77.3561 478.396 76.5359 477.228 75.9448C476.06 75.3538 474.785 75.0041 473.479 74.9166C472.173 74.8291 470.863 75.0056 469.626 75.4355ZM418.207 84.2835C416.823 80.2049 417.072 75.749 418.9 71.8494C420.728 67.9498 423.995 64.9091 428.016 63.3643C430.001 62.6851 432.103 62.4127 434.195 62.5634C436.288 62.7142 438.329 63.2849 440.197 64.2416C442.064 65.1983 443.72 66.5214 445.064 68.1319C446.409 69.7424 447.416 71.6073 448.025 73.6154L450.805 82.1221L420.988 92.7902L418.207 84.2835ZM456.127 133.403L460.753 147.534C460.838 147.817 460.811 148.123 460.677 148.386C460.542 148.65 460.312 148.852 460.033 148.95L453.548 151.263C453.29 151.334 453.015 151.303 452.779 151.176C452.543 151.049 452.366 150.835 452.284 150.58L447.62 136.512C445.048 136.372 442.581 135.449 440.548 133.868C438.515 132.287 437.013 130.122 436.244 127.664C435.145 124.414 435.345 120.865 436.804 117.76C438.262 114.654 440.865 112.234 444.068 111.004C445.65 110.464 447.324 110.248 448.991 110.368C450.657 110.489 452.283 110.943 453.77 111.705C455.258 112.467 456.577 113.521 457.648 114.803C458.72 116.086 459.522 117.571 460.007 119.17C460.821 121.667 460.888 124.347 460.201 126.882C459.514 129.417 458.102 131.696 456.14 133.44L456.127 133.403Z" fill="#FD7401"/>
<path d="M462.826 77.6096C462.826 77.7866 450.755 82.3243 435.739 87.7216C420.722 93.1189 408.474 97.4544 408.411 97.328C408.348 97.2016 420.482 92.6259 435.511 87.216C450.54 81.8061 462.763 77.4453 462.826 77.6096Z" fill="#263238"/>
<path d="M477.16 79.9354C477.216 80.0451 477.262 80.1592 477.299 80.2766C477.4 80.5294 477.514 80.8581 477.665 81.2626C477.994 82.1853 478.449 83.4619 479.018 85.0546L483.872 99.1861C485.894 105.177 488.308 112.281 490.988 120.168C492.252 124.125 493.743 128.245 495.134 132.581C495.878 134.815 496.2 137.168 496.082 139.52C495.975 140.743 495.627 141.933 495.058 143.022C494.451 144.106 493.639 145.063 492.669 145.84C490.716 147.266 488.549 148.371 486.248 149.114L479.738 151.452L467.414 155.864L446.546 163.296L432.452 168.251L428.66 169.515L427.649 169.844C427.541 169.892 427.425 169.922 427.308 169.932C427.308 169.932 427.409 169.932 427.624 169.78L428.61 169.389L432.402 167.96L446.419 162.803L467.25 155.219L479.549 150.77L486.058 148.419C488.294 147.706 490.398 146.634 492.29 145.246C493.193 144.525 493.948 143.637 494.515 142.63C495.05 141.623 495.372 140.518 495.463 139.381C495.579 137.115 495.27 134.847 494.552 132.695C493.187 128.397 491.746 124.239 490.444 120.282C487.815 112.382 485.388 105.253 483.467 99.2619C481.546 93.2706 479.928 88.4547 478.816 85.0672C478.285 83.4114 477.88 82.1221 477.552 81.1867L477.248 80.1755C477.21 80.0989 477.18 80.0184 477.16 79.9354Z" fill="#263238"/>
<path d="M441.566 62.5048C441.566 62.5048 440.896 62.1762 439.657 61.6706C437.891 60.9921 436.024 60.6161 434.133 60.5582C431.331 60.4621 428.542 60.9888 425.968 62.1003C422.837 63.4844 420.161 65.723 418.245 68.5594C416.316 71.3876 415.281 74.7299 415.274 78.1531C415.301 80.9589 415.726 83.7465 416.538 86.4323C417.196 88.7328 417.878 90.5656 418.333 91.8422C418.602 92.4907 418.821 93.1582 418.991 93.8394C418.631 93.2331 418.331 92.594 418.093 91.9307C417.575 90.6667 416.829 88.8718 416.096 86.5587C415.196 83.8448 414.706 81.0117 414.642 78.1531C414.609 74.6005 415.668 71.1235 417.676 68.1928C419.659 65.2529 422.445 62.945 425.702 61.5442C428.357 60.4266 431.233 59.9336 434.108 60.1032C436.04 60.2016 437.937 60.6514 439.707 61.4304C440.181 61.6488 440.637 61.9023 441.073 62.1888C441.252 62.2678 441.419 62.3744 441.566 62.5048Z" fill="#263238"/>
<path d="M442.147 111.965C442.349 111.843 442.56 111.737 442.779 111.649C443.412 111.364 444.067 111.131 444.738 110.954C445.804 110.639 446.903 110.453 448.012 110.398C449.521 110.317 451.031 110.545 452.449 111.068C455.685 112.205 458.655 115.504 460.121 119.916C460.824 122.283 460.824 124.804 460.121 127.171C459.341 129.74 457.944 132.08 456.051 133.984L456.127 133.643C457.808 138.256 459.641 143.262 461.537 148.482L461.651 148.798L461.335 148.912L458.44 149.872L452.12 151.983L451.804 152.084L451.703 151.768C449.971 146.536 448.075 141.656 446.647 136.866L446.925 137.081C444.454 136.876 442.098 135.948 440.15 134.414C438.388 133.056 436.943 131.331 435.916 129.358C434.989 127.608 434.527 125.649 434.576 123.67C434.634 121.647 435.139 119.662 436.055 117.857C436.971 116.052 438.274 114.471 439.872 113.229C440.53 112.695 441.268 112.269 442.059 111.965C441.345 112.389 440.653 112.849 439.986 113.343C438.23 114.828 436.886 116.738 436.08 118.892C435.388 120.516 435.065 122.272 435.133 124.036C435.2 125.8 435.658 127.526 436.472 129.092C437.482 130.991 438.892 132.647 440.605 133.946C442.463 135.404 444.71 136.284 447.064 136.474H447.279L447.342 136.664C448.732 141.366 450.641 146.283 452.398 151.541L451.981 151.339L458.301 149.228L461.183 148.255L460.981 148.684C459.097 143.464 457.277 138.446 455.609 133.832V133.643L455.76 133.491C457.598 131.666 458.968 129.424 459.755 126.956C460.425 124.692 460.425 122.281 459.755 120.017C458.377 115.77 455.533 112.547 452.449 111.409C451.083 110.883 449.626 110.637 448.164 110.688C447.072 110.714 445.986 110.862 444.928 111.131C443.044 111.599 442.16 112.028 442.147 111.965Z" fill="#263238"/>
<path d="M403.077 476.933L276.816 476.351C269.525 476.311 262.547 473.378 257.416 468.198C252.285 463.017 249.42 456.012 249.45 448.72L250.79 132.202C250.805 128.589 251.532 125.015 252.929 121.684C254.326 118.352 256.366 115.329 258.932 112.786C261.498 110.244 264.54 108.232 267.884 106.865C271.228 105.499 274.809 104.805 278.421 104.824L404.67 105.405C411.961 105.442 418.94 108.371 424.073 113.549C429.207 118.728 432.075 125.732 432.048 133.023L430.708 449.529C430.693 453.143 429.967 456.718 428.57 460.051C427.173 463.384 425.134 466.409 422.568 468.953C420.002 471.498 416.96 473.512 413.616 474.882C410.272 476.251 406.691 476.947 403.077 476.933Z" fill="#455A64"/>
<path d="M404.48 116.288H380.009C379.211 116.303 378.423 116.475 377.691 116.794C376.959 117.113 376.297 117.574 375.743 118.149C375.189 118.724 374.754 119.403 374.462 120.146C374.17 120.89 374.028 121.683 374.043 122.482V126.918C374.058 127.716 373.916 128.509 373.624 129.252C373.332 129.994 372.896 130.672 372.342 131.246C371.788 131.821 371.126 132.28 370.394 132.598C369.662 132.916 368.875 133.086 368.077 133.099L320.374 132.884C318.76 132.841 317.229 132.16 316.118 130.989C315.006 129.818 314.405 128.254 314.445 126.64V122.204C314.486 120.592 313.887 119.03 312.778 117.859C311.669 116.689 310.141 116.006 308.53 115.959H299.922L278.497 115.858C273.401 115.828 268.501 117.818 264.869 121.393C261.237 124.968 259.17 129.836 259.12 134.932L257.856 443.879C257.845 446.407 258.331 448.913 259.288 451.253C260.244 453.593 261.653 455.721 263.432 457.517C265.211 459.313 267.327 460.741 269.658 461.719C271.989 462.697 274.49 463.206 277.018 463.218L403.014 463.799C405.544 463.811 408.051 463.324 410.392 462.367C412.734 461.41 414.864 460.001 416.661 458.22C418.458 456.439 419.887 454.322 420.866 451.99C421.844 449.657 422.354 447.154 422.366 444.625L423.63 135.678C423.66 130.568 421.66 125.655 418.069 122.019C414.478 118.383 409.59 116.321 404.48 116.288Z" fill="white"/>
<path d="M387.53 422.58L293.842 422.176C292.869 422.176 292.085 421.114 292.098 419.825L292.199 395.316C292.199 394.052 292.995 392.965 293.969 392.965L387.656 393.395C388.196 393.488 388.678 393.786 389.003 394.226C389.328 394.667 389.47 395.216 389.401 395.758L389.312 420.242C389.312 421.544 388.503 422.593 387.53 422.58Z" fill="#FD7401"/>
<path d="M324.267 404.641C324.223 404.271 324.045 403.984 323.734 403.779C323.423 403.575 323.041 403.473 322.588 403.473C322.257 403.473 321.968 403.526 321.719 403.633C321.474 403.74 321.281 403.888 321.143 404.075C321.006 404.262 320.938 404.475 320.938 404.714C320.938 404.913 320.986 405.085 321.081 405.228C321.178 405.369 321.302 405.487 321.453 405.582C321.604 405.675 321.762 405.751 321.927 405.812C322.093 405.871 322.245 405.918 322.384 405.955L323.143 406.159C323.337 406.21 323.554 406.281 323.792 406.371C324.033 406.461 324.263 406.584 324.482 406.739C324.704 406.893 324.886 407.09 325.03 407.331C325.173 407.571 325.245 407.867 325.245 408.218C325.245 408.621 325.139 408.986 324.928 409.312C324.718 409.639 324.412 409.898 324.008 410.09C323.606 410.282 323.118 410.378 322.544 410.378C322.009 410.378 321.545 410.292 321.154 410.119C320.764 409.946 320.458 409.705 320.234 409.396C320.012 409.087 319.887 408.728 319.858 408.32H320.792C320.817 408.602 320.911 408.836 321.077 409.02C321.245 409.203 321.457 409.339 321.712 409.429C321.97 409.517 322.247 409.561 322.544 409.561C322.89 409.561 323.2 409.505 323.475 409.393C323.75 409.278 323.968 409.12 324.128 408.918C324.289 408.714 324.369 408.475 324.369 408.203C324.369 407.955 324.3 407.753 324.161 407.597C324.022 407.441 323.84 407.315 323.614 407.217C323.387 407.12 323.143 407.035 322.88 406.962L321.96 406.699C321.376 406.531 320.914 406.292 320.573 405.98C320.233 405.669 320.062 405.261 320.062 404.757C320.062 404.339 320.175 403.974 320.402 403.663C320.63 403.349 320.937 403.105 321.321 402.933C321.708 402.757 322.14 402.67 322.617 402.67C323.099 402.67 323.527 402.756 323.902 402.929C324.277 403.099 324.573 403.333 324.792 403.63C325.014 403.927 325.131 404.264 325.143 404.641H324.267ZM327.638 402.772V410.247H326.733V402.772H327.638ZM335.381 402.772V410.247H334.505L330.431 404.378H330.358V410.247H329.453V402.772H330.329L334.417 408.655H334.49V402.772H335.381ZM342.302 405.108C342.221 404.862 342.116 404.642 341.984 404.447C341.855 404.25 341.701 404.082 341.521 403.944C341.343 403.805 341.141 403.699 340.915 403.626C340.688 403.553 340.44 403.517 340.17 403.517C339.727 403.517 339.325 403.631 338.962 403.86C338.6 404.088 338.311 404.425 338.097 404.871C337.883 405.316 337.776 405.862 337.776 406.509C337.776 407.157 337.884 407.703 338.101 408.148C338.317 408.593 338.61 408.93 338.98 409.159C339.35 409.388 339.766 409.502 340.229 409.502C340.657 409.502 341.034 409.411 341.36 409.229C341.688 409.044 341.944 408.783 342.126 408.447C342.311 408.109 342.404 407.711 342.404 407.254L342.681 407.312H340.433V406.509H343.28V407.312C343.28 407.928 343.148 408.463 342.886 408.918C342.625 409.373 342.265 409.726 341.805 409.977C341.348 410.225 340.822 410.349 340.229 410.349C339.567 410.349 338.985 410.193 338.484 409.882C337.985 409.57 337.596 409.128 337.316 408.553C337.039 407.979 336.9 407.298 336.9 406.509C336.9 405.918 336.979 405.386 337.137 404.914C337.298 404.44 337.524 404.036 337.816 403.703C338.108 403.369 338.454 403.114 338.853 402.936C339.252 402.759 339.691 402.67 340.17 402.67C340.564 402.67 340.932 402.729 341.272 402.849C341.615 402.965 341.921 403.132 342.189 403.349C342.459 403.563 342.684 403.819 342.864 404.119C343.044 404.416 343.168 404.745 343.236 405.108H342.302ZM352.626 402.772H353.531V407.721C353.531 408.232 353.411 408.688 353.17 409.09C352.932 409.489 352.595 409.804 352.159 410.035C351.723 410.264 351.212 410.378 350.626 410.378C350.04 410.378 349.529 410.264 349.093 410.035C348.658 409.804 348.319 409.489 348.078 409.09C347.84 408.688 347.721 408.232 347.721 407.721V402.772H348.626V407.648C348.626 408.013 348.706 408.338 348.867 408.623C349.027 408.905 349.256 409.128 349.553 409.291C349.852 409.451 350.21 409.531 350.626 409.531C351.042 409.531 351.4 409.451 351.699 409.291C351.998 409.128 352.227 408.905 352.385 408.623C352.546 408.338 352.626 408.013 352.626 407.648V402.772ZM355.339 410.247V402.772H357.865C358.451 402.772 358.93 402.878 359.303 403.089C359.677 403.299 359.955 403.582 360.135 403.94C360.315 404.298 360.405 404.697 360.405 405.137C360.405 405.577 360.315 405.978 360.135 406.338C359.957 406.698 359.682 406.985 359.31 407.199C358.938 407.411 358.461 407.517 357.879 407.517H356.069V406.714H357.85C358.251 406.714 358.574 406.644 358.817 406.506C359.061 406.367 359.237 406.18 359.346 405.944C359.458 405.705 359.514 405.436 359.514 405.137C359.514 404.838 359.458 404.57 359.346 404.334C359.237 404.098 359.059 403.913 358.814 403.779C358.568 403.643 358.242 403.575 357.835 403.575H356.244V410.247H355.339Z" fill="#E8E8E3"/>
<path d="M312.529 207.107L280.02 206.959L279.992 212.925L312.502 213.073L312.529 207.107Z" fill="#FD7401"/>
<path opacity="0.1" d="M312.529 207.107L280.02 206.959L279.992 212.925L312.502 213.073L312.529 207.107Z" fill="black"/>
<path d="M407.83 243.737C408.085 243.711 408.336 243.652 408.575 243.56C408.925 243.423 409.23 243.191 409.453 242.889C409.677 242.587 409.811 242.228 409.839 241.854C409.839 239.844 409.839 236.912 409.839 233.145C409.839 231.261 409.839 229.151 409.839 226.825C409.839 226.256 409.839 225.662 409.839 225.068C409.922 224.491 409.796 223.904 409.486 223.412C409.312 223.176 409.085 222.983 408.824 222.85C408.563 222.716 408.275 222.644 407.981 222.641H406.01H387.745L282.024 222.249C281.753 222.245 281.486 222.305 281.243 222.426C281.001 222.547 280.792 222.725 280.633 222.944C280.328 223.439 280.211 224.027 280.305 224.6C280.305 225.864 280.305 227.128 280.305 228.392C280.305 230.92 280.305 233.448 280.305 235.976C280.305 237.24 280.305 238.504 280.305 239.768C280.252 240.357 280.252 240.949 280.305 241.538C280.371 241.79 280.495 242.024 280.666 242.221C280.836 242.418 281.05 242.574 281.291 242.675C281.54 242.775 281.806 242.822 282.074 242.814H288.508L316.582 242.966L364.108 243.257L396.15 243.51L404.859 243.611H407.122C407.64 243.611 407.893 243.611 407.893 243.611H407.122H404.859H396.15H364.108L316.582 243.459L288.508 243.345H282.074C281.72 243.36 281.367 243.299 281.038 243.168C280.705 243.026 280.409 242.81 280.173 242.536C279.936 242.262 279.765 241.938 279.673 241.588C279.6 241.257 279.574 240.916 279.597 240.577V239.642C279.597 238.378 279.597 237.114 279.597 235.85C279.597 233.322 279.597 230.794 279.597 228.266C279.597 227.002 279.597 225.738 279.597 224.474C279.573 224.137 279.573 223.799 279.597 223.463C279.644 223.091 279.788 222.738 280.014 222.439C280.232 222.134 280.521 221.886 280.855 221.716C281.19 221.547 281.56 221.461 281.935 221.465L387.656 222.047L405.921 222.173H407.893C408.24 222.174 408.583 222.258 408.891 222.418C409.199 222.579 409.463 222.811 409.663 223.096C410.019 223.646 410.163 224.306 410.067 224.954C410.067 225.548 410.067 226.142 410.067 226.711C410.067 229.012 410.067 231.122 410.067 233.031C410.067 236.823 409.979 239.73 409.953 241.753C409.922 242.141 409.781 242.513 409.546 242.825C409.311 243.136 408.992 243.374 408.626 243.51C408.387 243.658 408.111 243.737 407.83 243.737Z" fill="#E0E0E0"/>
<path d="M349.243 228.594H289.785V234.169H349.243V228.594Z" fill="#FD7401"/>
<path opacity="0.2" d="M349.243 228.594H289.785V234.169H349.243V228.594Z" fill="white"/>
<path d="M312.308 261.533L279.798 261.385L279.771 267.351L312.281 267.499L312.308 261.533Z" fill="#FD7401"/>
<path opacity="0.1" d="M312.308 261.533L279.798 261.385L279.771 267.351L312.281 267.499L312.308 261.533Z" fill="black"/>
<path d="M407.008 298.165C407.263 298.134 407.517 298.087 407.766 298.026C408.119 297.914 408.444 297.727 408.719 297.478C408.994 297.23 409.212 296.925 409.359 296.585C409.558 296.075 409.636 295.525 409.587 294.98C409.587 294.373 409.587 293.716 409.587 292.983C409.587 291.516 409.587 289.848 409.587 287.927V279.9C409.647 279.319 409.518 278.734 409.22 278.232C408.908 277.717 408.418 277.334 407.842 277.157C407.213 277.045 406.572 277.011 405.934 277.056H387.745L282.39 276.664C281.824 276.666 281.277 276.873 280.851 277.247C280.426 277.621 280.151 278.137 280.077 278.699C280.077 279.9 280.077 281.227 280.077 282.491C280.077 285.019 280.077 287.547 280.077 290.075C280.077 291.339 280.077 292.603 280.077 293.867C280.03 294.458 280.055 295.052 280.153 295.637C280.311 296.15 280.636 296.594 281.076 296.901C281.543 297.197 282.091 297.339 282.643 297.305H284.4H288.053L316.025 297.445L363.387 297.735L395.316 297.988L404 298.089H406.262H407.021H406.262H404H395.316H363.387L316 298.039L288.028 297.937H282.529C281.846 297.978 281.167 297.796 280.595 297.419C280.02 297.021 279.6 296.436 279.407 295.763C279.294 295.121 279.26 294.467 279.306 293.817C279.306 292.553 279.306 291.289 279.306 290.025C279.306 287.497 279.306 284.969 279.306 282.441C279.306 281.177 279.306 279.913 279.306 278.649C279.398 277.926 279.751 277.262 280.298 276.78C280.844 276.298 281.548 276.033 282.276 276.032L387.631 276.614L405.82 276.753C406.497 276.711 407.177 276.758 407.842 276.892C408.499 277.106 409.053 277.557 409.397 278.156C409.724 278.713 409.866 279.359 409.801 280.001C409.801 280.595 409.801 281.177 409.801 281.758C409.801 284.046 409.801 286.144 409.801 288.078C409.801 290.012 409.801 291.643 409.801 293.134C409.801 293.855 409.801 294.525 409.801 295.144C409.847 295.709 409.756 296.277 409.536 296.8C409.372 297.149 409.135 297.458 408.84 297.707C408.546 297.955 408.201 298.137 407.83 298.241C407.553 298.264 407.275 298.238 407.008 298.165Z" fill="#E0E0E0"/>
<path d="M312.062 318.323L279.553 318.175L279.526 324.141L312.035 324.289L312.062 318.323Z" fill="#FD7401"/>
<path opacity="0.1" d="M312.062 318.323L279.553 318.175L279.526 324.141L312.035 324.289L312.062 318.323Z" fill="black"/>
<path d="M406.755 354.931C407.011 354.901 407.264 354.855 407.514 354.792C407.865 354.68 408.189 354.495 408.463 354.249C408.738 354.003 408.957 353.701 409.106 353.364C409.305 352.853 409.382 352.304 409.334 351.759C409.334 351.139 409.334 350.495 409.334 349.749C409.334 348.295 409.334 346.614 409.334 344.693V336.666C409.394 336.085 409.266 335.5 408.967 334.998C408.648 334.492 408.16 334.116 407.59 333.936C406.961 333.819 406.319 333.781 405.681 333.822H387.492L282.138 333.431C281.571 333.432 281.024 333.639 280.598 334.013C280.173 334.388 279.898 334.904 279.824 335.466C279.824 336.73 279.824 337.994 279.824 339.258C279.824 341.786 279.824 344.314 279.824 346.842C279.824 348.106 279.824 349.37 279.824 350.634C279.777 351.22 279.803 351.81 279.9 352.391C280.052 352.906 280.378 353.353 280.823 353.655C281.287 353.958 281.838 354.1 282.39 354.059H287.889L315.861 354.211L363.223 354.501L395.152 354.754L403.835 354.855H406.098C406.604 354.855 406.856 354.855 406.856 354.855C406.856 354.855 406.604 354.855 406.098 354.855H403.835H395.152H363.223L315.861 354.716L287.889 354.603H282.39C281.706 354.649 281.026 354.466 280.456 354.084C279.881 353.686 279.462 353.101 279.268 352.429C279.155 351.786 279.121 351.132 279.167 350.482C279.167 349.218 279.167 347.954 279.167 346.69C279.167 344.162 279.167 341.634 279.167 339.106C279.167 337.842 279.167 336.578 279.167 335.251C279.257 334.529 279.606 333.865 280.151 333.383C280.696 332.901 281.398 332.635 282.125 332.634L387.479 333.216L405.668 333.355C406.346 333.313 407.025 333.36 407.691 333.494C408.347 333.708 408.901 334.159 409.245 334.758C409.572 335.315 409.714 335.961 409.65 336.603C409.65 337.197 409.65 337.791 409.65 338.36C409.65 340.648 409.65 342.746 409.65 344.68C409.65 346.614 409.65 348.245 409.65 349.736C409.65 350.457 409.65 351.127 409.65 351.746C409.698 352.311 409.607 352.88 409.384 353.402C409.22 353.751 408.983 354.06 408.689 354.309C408.394 354.557 408.049 354.739 407.678 354.843C407.382 354.944 407.066 354.974 406.755 354.931Z" fill="#E0E0E0"/>
<path d="M347.974 284.598L288.516 284.328L288.491 289.903L347.949 290.172L347.974 284.598Z" fill="#FD7401"/>
<path opacity="0.2" d="M347.974 284.598L288.516 284.328L288.491 289.903L347.949 290.172L347.974 284.598Z" fill="white"/>
<path d="M293.893 344.617C293.855 345.125 293.67 345.612 293.358 346.016C293.047 346.419 292.624 346.723 292.142 346.889C291.66 347.055 291.14 347.075 290.646 346.948C290.153 346.821 289.707 346.552 289.365 346.174C289.023 345.796 288.799 345.325 288.722 344.822C288.645 344.318 288.717 343.802 288.93 343.339C289.143 342.876 289.487 342.485 289.92 342.216C290.353 341.946 290.855 341.81 291.365 341.823C292.069 341.863 292.729 342.178 293.202 342.701C293.676 343.224 293.924 343.912 293.893 344.617Z" fill="#FD7401"/>
<path d="M301.944 344.655C301.969 345.011 301.92 345.369 301.801 345.706C301.682 346.042 301.495 346.351 301.251 346.612C301.007 346.873 300.713 347.082 300.385 347.224C300.057 347.367 299.704 347.44 299.347 347.44C298.99 347.44 298.636 347.367 298.309 347.224C297.981 347.082 297.686 346.873 297.443 346.612C297.199 346.351 297.012 346.042 296.892 345.706C296.773 345.369 296.724 345.011 296.749 344.655C296.724 344.299 296.773 343.941 296.892 343.604C297.012 343.267 297.199 342.959 297.443 342.698C297.686 342.436 297.981 342.228 298.309 342.086C298.636 341.943 298.99 341.87 299.347 341.87C299.704 341.87 300.057 341.943 300.385 342.086C300.713 342.228 301.007 342.436 301.251 342.698C301.495 342.959 301.682 343.267 301.801 343.604C301.92 343.941 301.969 344.299 301.944 344.655Z" fill="#FD7401"/>
<path d="M310.009 344.693C309.971 345.201 309.786 345.688 309.474 346.091C309.163 346.495 308.74 346.799 308.258 346.965C307.776 347.13 307.256 347.151 306.762 347.024C306.269 346.897 305.823 346.627 305.481 346.249C305.139 345.871 304.915 345.401 304.838 344.897C304.761 344.394 304.833 343.878 305.046 343.415C305.259 342.952 305.603 342.561 306.036 342.292C306.469 342.022 306.971 341.886 307.481 341.899C308.184 341.942 308.842 342.258 309.315 342.78C309.787 343.302 310.036 343.989 310.009 344.693Z" fill="#FD7401"/>
<path d="M318.06 344.731C318.023 345.239 317.837 345.726 317.526 346.129C317.215 346.533 316.792 346.837 316.31 347.003C315.828 347.168 315.308 347.189 314.814 347.062C314.32 346.935 313.875 346.665 313.533 346.287C313.191 345.909 312.967 345.439 312.89 344.935C312.812 344.432 312.885 343.916 313.098 343.453C313.31 342.99 313.655 342.599 314.088 342.33C314.52 342.06 315.023 341.924 315.532 341.937C316.235 341.98 316.894 342.296 317.366 342.818C317.839 343.34 318.088 344.027 318.06 344.731Z" fill="#FD7401"/>
<path d="M326.112 344.756C326.077 345.265 325.893 345.753 325.584 346.159C325.274 346.564 324.852 346.87 324.37 347.037C323.888 347.205 323.367 347.227 322.872 347.102C322.378 346.976 321.931 346.707 321.588 346.33C321.244 345.952 321.019 345.482 320.941 344.977C320.863 344.473 320.935 343.957 321.147 343.493C321.36 343.029 321.704 342.638 322.138 342.368C322.571 342.098 323.074 341.962 323.584 341.975C324.285 342.018 324.941 342.332 325.413 342.852C325.886 343.371 326.136 344.054 326.112 344.756Z" fill="#FD7401"/>
<path d="M334.176 344.794C334.142 345.3 333.96 345.786 333.653 346.19C333.346 346.595 332.928 346.901 332.449 347.071C331.971 347.241 331.453 347.267 330.96 347.146C330.467 347.026 330.02 346.763 329.673 346.392C329.327 346.021 329.097 345.556 329.012 345.056C328.926 344.555 328.989 344.04 329.192 343.575C329.395 343.11 329.73 342.714 330.155 342.436C330.58 342.159 331.077 342.012 331.585 342.013C332.297 342.039 332.969 342.347 333.455 342.868C333.941 343.389 334.2 344.082 334.176 344.794Z" fill="#FD7401"/>
<path d="M342.228 344.832C342.253 345.188 342.204 345.546 342.085 345.883C341.966 346.219 341.778 346.528 341.535 346.789C341.291 347.05 340.996 347.259 340.669 347.401C340.341 347.543 339.988 347.617 339.63 347.617C339.273 347.617 338.92 347.543 338.592 347.401C338.265 347.259 337.97 347.05 337.726 346.789C337.483 346.528 337.295 346.219 337.176 345.883C337.057 345.546 337.008 345.188 337.033 344.832C337.008 344.475 337.057 344.118 337.176 343.781C337.295 343.444 337.483 343.136 337.726 342.875C337.97 342.613 338.265 342.405 338.592 342.263C338.92 342.12 339.273 342.047 339.63 342.047C339.988 342.047 340.341 342.12 340.669 342.263C340.996 342.405 341.291 342.613 341.535 342.875C341.778 343.136 341.966 343.444 342.085 343.781C342.204 344.118 342.253 344.475 342.228 344.832Z" fill="#FD7401"/>
<path d="M350.28 344.87C350.245 345.376 350.063 345.862 349.757 346.266C349.45 346.671 349.031 346.977 348.553 347.147C348.074 347.317 347.557 347.343 347.063 347.222C346.57 347.102 346.123 346.839 345.777 346.468C345.431 346.096 345.201 345.632 345.115 345.131C345.03 344.631 345.092 344.116 345.296 343.651C345.499 343.186 345.833 342.79 346.259 342.512C346.684 342.235 347.181 342.088 347.689 342.089C348.401 342.115 349.073 342.423 349.559 342.944C350.044 343.465 350.304 344.158 350.28 344.87Z" fill="#FD7401"/>
<path d="M358.331 344.908C358.297 345.417 358.113 345.905 357.803 346.31C357.493 346.716 357.071 347.021 356.589 347.189C356.107 347.357 355.586 347.379 355.092 347.253C354.597 347.127 354.15 346.859 353.807 346.481C353.464 346.104 353.239 345.633 353.161 345.129C353.082 344.625 353.154 344.109 353.367 343.645C353.58 343.181 353.924 342.789 354.357 342.52C354.79 342.25 355.293 342.113 355.803 342.127C356.504 342.169 357.161 342.484 357.633 343.003C358.105 343.523 358.356 344.206 358.331 344.908Z" fill="#FD7401"/>
<g opacity="0.2">
<path d="M293.893 344.617C293.855 345.125 293.67 345.612 293.358 346.016C293.047 346.419 292.624 346.723 292.142 346.889C291.66 347.055 291.14 347.075 290.646 346.948C290.153 346.821 289.707 346.552 289.365 346.174C289.023 345.796 288.799 345.325 288.722 344.822C288.645 344.318 288.717 343.802 288.93 343.339C289.143 342.876 289.487 342.485 289.92 342.216C290.353 341.946 290.855 341.81 291.365 341.823C292.069 341.863 292.729 342.178 293.202 342.701C293.676 343.224 293.924 343.912 293.893 344.617Z" fill="white"/>
<path d="M301.944 344.655C301.969 345.011 301.92 345.369 301.801 345.706C301.682 346.042 301.495 346.351 301.251 346.612C301.007 346.873 300.713 347.082 300.385 347.224C300.057 347.367 299.704 347.44 299.347 347.44C298.99 347.44 298.636 347.367 298.309 347.224C297.981 347.082 297.686 346.873 297.443 346.612C297.199 346.351 297.012 346.042 296.892 345.706C296.773 345.369 296.724 345.011 296.749 344.655C296.724 344.299 296.773 343.941 296.892 343.604C297.012 343.267 297.199 342.959 297.443 342.698C297.686 342.436 297.981 342.228 298.309 342.086C298.636 341.943 298.99 341.87 299.347 341.87C299.704 341.87 300.057 341.943 300.385 342.086C300.713 342.228 301.007 342.436 301.251 342.698C301.495 342.959 301.682 343.267 301.801 343.604C301.92 343.941 301.969 344.299 301.944 344.655Z" fill="white"/>
<path d="M310.009 344.693C309.971 345.201 309.786 345.688 309.474 346.091C309.163 346.495 308.74 346.799 308.258 346.965C307.776 347.13 307.256 347.151 306.762 347.024C306.269 346.897 305.823 346.627 305.481 346.249C305.139 345.871 304.915 345.401 304.838 344.897C304.761 344.394 304.833 343.878 305.046 343.415C305.259 342.952 305.603 342.561 306.036 342.292C306.469 342.022 306.971 341.886 307.481 341.899C308.184 341.942 308.842 342.258 309.315 342.78C309.787 343.302 310.036 343.989 310.009 344.693Z" fill="white"/>
<path d="M318.06 344.731C318.023 345.239 317.837 345.726 317.526 346.129C317.215 346.533 316.792 346.837 316.31 347.003C315.828 347.168 315.308 347.189 314.814 347.062C314.32 346.935 313.875 346.665 313.533 346.287C313.191 345.909 312.967 345.439 312.89 344.935C312.812 344.432 312.885 343.916 313.098 343.453C313.31 342.99 313.655 342.599 314.088 342.33C314.52 342.06 315.023 341.924 315.532 341.937C316.235 341.98 316.894 342.296 317.366 342.818C317.839 343.34 318.088 344.027 318.06 344.731Z" fill="white"/>
<path d="M326.112 344.756C326.077 345.265 325.893 345.753 325.584 346.159C325.274 346.564 324.852 346.87 324.37 347.037C323.888 347.205 323.367 347.227 322.872 347.102C322.378 346.976 321.931 346.707 321.588 346.33C321.244 345.952 321.019 345.482 320.941 344.977C320.863 344.473 320.935 343.957 321.147 343.493C321.36 343.029 321.704 342.638 322.138 342.368C322.571 342.098 323.074 341.962 323.584 341.975C324.285 342.018 324.941 342.332 325.413 342.852C325.886 343.371 326.136 344.054 326.112 344.756Z" fill="white"/>
<path d="M334.176 344.794C334.142 345.3 333.96 345.786 333.653 346.19C333.346 346.595 332.928 346.901 332.449 347.071C331.971 347.241 331.453 347.267 330.96 347.146C330.467 347.026 330.02 346.763 329.673 346.392C329.327 346.021 329.097 345.556 329.012 345.056C328.926 344.555 328.989 344.04 329.192 343.575C329.395 343.11 329.73 342.714 330.155 342.436C330.58 342.159 331.077 342.012 331.585 342.013C332.297 342.039 332.969 342.347 333.455 342.868C333.941 343.389 334.2 344.082 334.176 344.794Z" fill="white"/>
<path d="M342.228 344.832C342.253 345.188 342.204 345.546 342.085 345.883C341.966 346.219 341.778 346.528 341.535 346.789C341.291 347.05 340.996 347.259 340.669 347.401C340.341 347.543 339.988 347.617 339.63 347.617C339.273 347.617 338.92 347.543 338.592 347.401C338.265 347.259 337.97 347.05 337.726 346.789C337.483 346.528 337.295 346.219 337.176 345.883C337.057 345.546 337.008 345.188 337.033 344.832C337.008 344.475 337.057 344.118 337.176 343.781C337.295 343.444 337.483 343.136 337.726 342.875C337.97 342.613 338.265 342.405 338.592 342.263C338.92 342.12 339.273 342.047 339.63 342.047C339.988 342.047 340.341 342.12 340.669 342.263C340.996 342.405 341.291 342.613 341.535 342.875C341.778 343.136 341.966 343.444 342.085 343.781C342.204 344.118 342.253 344.475 342.228 344.832Z" fill="white"/>
<path d="M350.28 344.87C350.245 345.376 350.063 345.862 349.757 346.266C349.45 346.671 349.031 346.977 348.553 347.147C348.074 347.317 347.557 347.343 347.063 347.222C346.57 347.102 346.123 346.839 345.777 346.468C345.431 346.096 345.201 345.632 345.115 345.131C345.03 344.631 345.092 344.116 345.296 343.651C345.499 343.186 345.833 342.79 346.259 342.512C346.684 342.235 347.181 342.088 347.689 342.089C348.401 342.115 349.073 342.423 349.559 342.944C350.044 343.465 350.304 344.158 350.28 344.87Z" fill="white"/>
<path d="M358.331 344.908C358.296 345.417 358.113 345.905 357.803 346.31C357.493 346.716 357.071 347.022 356.589 347.189C356.107 347.357 355.586 347.379 355.092 347.253C354.597 347.127 354.15 346.859 353.807 346.481C353.463 346.104 353.239 345.634 353.16 345.129C353.082 344.625 353.154 344.109 353.367 343.645C353.579 343.181 353.924 342.79 354.357 342.52C354.79 342.25 355.293 342.113 355.803 342.127C356.504 342.169 357.16 342.484 357.633 343.003C358.105 343.523 358.356 344.206 358.331 344.908Z" fill="white"/>
</g>
<path d="M346.892 162.437C347.77 162.05 348.515 161.414 349.034 160.607C349.554 159.8 349.824 158.858 349.812 157.899C349.845 157.275 349.75 156.651 349.534 156.066C349.318 155.48 348.985 154.944 348.555 154.491C348.125 154.038 347.607 153.677 347.034 153.431C346.46 153.184 345.842 153.057 345.217 153.057C344.593 153.057 343.975 153.184 343.401 153.431C342.827 153.677 342.31 154.038 341.88 154.491C341.45 154.944 341.117 155.48 340.901 156.066C340.685 156.651 340.59 157.275 340.623 157.899C340.604 158.868 340.872 159.821 341.394 160.637C341.916 161.454 342.668 162.098 343.555 162.487C336.477 163.549 336.793 171.234 336.793 171.234L353.528 171.31C353.528 171.31 353.92 163.486 346.892 162.437Z" fill="#FD7401"/>
<path opacity="0.1" d="M346.892 162.437C347.77 162.05 348.515 161.414 349.034 160.607C349.554 159.8 349.824 158.858 349.812 157.899C349.845 157.275 349.75 156.651 349.534 156.066C349.318 155.48 348.985 154.944 348.555 154.491C348.125 154.038 347.607 153.677 347.034 153.431C346.46 153.184 345.842 153.057 345.217 153.057C344.593 153.057 343.975 153.184 343.401 153.431C342.827 153.677 342.31 154.038 341.88 154.491C341.45 154.944 341.117 155.48 340.901 156.066C340.685 156.651 340.59 157.275 340.623 157.899C340.604 158.868 340.872 159.821 341.394 160.637C341.916 161.454 342.668 162.098 343.555 162.487C336.477 163.549 336.793 171.234 336.793 171.234L353.528 171.31C353.528 171.31 353.92 163.486 346.892 162.437Z" fill="black"/>
<path d="M374.086 176.267L314.439 175.996L314.407 183.125L374.054 183.396L374.086 176.267Z" fill="#FD7401"/>
<path opacity="0.2" d="M374.086 176.267L314.439 175.996L314.407 183.125L374.054 183.396L374.086 176.267Z" fill="white"/>
</svg>
