<?xml version="1.0" encoding="UTF-8" standalone="no"?>
<svg
   width="270"
   height="60"
   viewBox="0 0 270 60"
   fill="none"
   version="1.1"
   id="svg11"
   sodipodi:docname="logo - Copia.svg"
   inkscape:version="1.3.2 (091e20e, 2023-11-25, custom)"
   xmlns:inkscape="http://www.inkscape.org/namespaces/inkscape"
   xmlns:sodipodi="http://sodipodi.sourceforge.net/DTD/sodipodi-0.dtd"
   xmlns="http://www.w3.org/2000/svg"
   xmlns:svg="http://www.w3.org/2000/svg">
  <defs
     id="defs11">
    <filter
       id="filter0_d_324_6"
       x="0.069946297"
       y="0.79998797"
       width="200.66901"
       height="30.469999"
       filterUnits="userSpaceOnUse"
       color-interpolation-filters="sRGB">
      <feFlood
         flood-opacity="0"
         result="BackgroundImageFix"
         id="feFlood1" />
      <feColorMatrix
         in="SourceAlpha"
         type="matrix"
         values="0 0 0 0 0 0 0 0 0 0 0 0 0 0 0 0 0 0 127 0"
         result="hardAlpha"
         id="feColorMatrix1" />
      <feOffset
         dy="4"
         id="feOffset1" />
      <feGaussianBlur
         stdDeviation="2"
         id="feGaussianBlur1" />
      <feComposite
         in2="hardAlpha"
         operator="out"
         id="feComposite1" />
      <feColorMatrix
         type="matrix"
         values="0 0 0 0 0 0 0 0 0 0 0 0 0 0 0 0 0 0 0.25 0"
         id="feColorMatrix2" />
      <feBlend
         mode="normal"
         in2="BackgroundImageFix"
         result="effect1_dropShadow_324_6"
         id="feBlend2" />
      <feBlend
         mode="normal"
         in="SourceGraphic"
         in2="effect1_dropShadow_324_6"
         result="shape"
         id="feBlend3" />
    </filter>
  </defs>
  <sodipodi:namedview
     id="namedview11"
     pagecolor="#ffffff"
     bordercolor="#000000"
     borderopacity="0.25"
     inkscape:showpageshadow="2"
     inkscape:pageopacity="0.0"
     inkscape:pagecheckerboard="0"
     inkscape:deskcolor="#d1d1d1"
     inkscape:zoom="6.5412844"
     inkscape:cx="152.64586"
     inkscape:cy="30.039972"
     inkscape:window-width="2400"
     inkscape:window-height="1261"
     inkscape:window-x="2391"
     inkscape:window-y="-9"
     inkscape:window-maximized="1"
     inkscape:current-layer="svg11" />
  <rect
     y="4.15417"
     width="5.5388598"
     height="55.388599"
     rx="2.7694299"
     fill="#fd7401"
     id="rect1"
     x="0" />
  <rect
     x="22.155399"
     y="4.15417"
     width="5.5388598"
     height="55.388599"
     rx="2.7694299"
     fill="#fd7401"
     id="rect2" />
  <rect
     x="44.310902"
     y="4.15417"
     width="5.5388598"
     height="55.388599"
     rx="2.7694299"
     fill="#fd7401"
     id="rect3" />
  <rect
     x="11.0778"
     width="5.5388598"
     height="55.388599"
     rx="2.7694299"
     fill="#1e2772"
     id="rect4"
     y="0" />
  <rect
     x="33.2332"
     width="5.5388598"
     height="55.388599"
     rx="2.7694299"
     fill="#1e2772"
     id="rect5"
     y="0" />
  <g
     filter="url(#filter0_d_324_6)"
     id="g2"
     transform="matrix(1.1003447,0,0,1.1003447,50.225265,18.187059)">
    <path
       d="M 26.9,2.06 V 23 H 22.7 V 9.38 L 17.09,23 H 13.91 L 8.27,9.38 V 23 H 4.07 V 2.06 H 8.84 L 15.5,17.63 22.16,2.06 Z m 11.5324,21.21 c -1.6,0 -3.04,-0.35 -4.32,-1.05 -1.28,-0.72 -2.29,-1.73 -3.03,-3.03 -0.72,-1.3 -1.08,-2.8 -1.08,-4.5 0,-1.7 0.37,-3.2 1.11,-4.5 0.76,-1.3 1.79,-2.3 3.09,-3 1.3,-0.72 2.75,-1.08 4.35,-1.08 1.6,0 3.05,0.36 4.35,1.08 1.3,0.7 2.32,1.7 3.06,3 0.76,1.3 1.14,2.8 1.14,4.5 0,1.7 -0.39,3.2 -1.17,4.5 -0.76,1.3 -1.8,2.31 -3.12,3.03 -1.3,0.7 -2.76,1.05 -4.38,1.05 z m 0,-3.66 c 0.76,0 1.47,-0.18 2.13,-0.54 0.68,-0.38 1.22,-0.94 1.62,-1.68 0.4,-0.74 0.6,-1.64 0.6,-2.7 0,-1.58 -0.42,-2.79 -1.26,-3.63 -0.82,-0.86 -1.83,-1.29 -3.03,-1.29 -1.2,0 -2.21,0.43 -3.03,1.29 -0.8,0.84 -1.2,2.05 -1.2,3.63 0,1.58 0.39,2.8 1.17,3.66 0.8,0.84 1.8,1.26 3,1.26 z M 55.0733,9.83 v 8.04 c 0,0.56 0.13,0.97 0.39,1.23 0.28,0.24 0.74,0.36 1.38,0.36 h 1.95 V 23 h -2.64 c -3.54,0 -5.31,-1.72 -5.31,-5.16 V 9.83 h -1.98 V 6.38 h 1.98 V 2.27 h 4.23 v 4.11 h 3.72 v 3.45 z m 14.1208,13.44 c -1.6,0 -3.04,-0.35 -4.32,-1.05 -1.28,-0.72 -2.29,-1.73 -3.03,-3.03 -0.72,-1.3 -1.08,-2.8 -1.08,-4.5 0,-1.7 0.37,-3.2 1.11,-4.5 0.76,-1.3 1.79,-2.3 3.09,-3 1.3,-0.72 2.75,-1.08 4.35,-1.08 1.6,0 3.05,0.36 4.35,1.08 1.3,0.7 2.32,1.7 3.06,3 0.76,1.3 1.14,2.8 1.14,4.5 0,1.7 -0.39,3.2 -1.17,4.5 -0.76,1.3 -1.8,2.31 -3.12,3.03 -1.3,0.7 -2.76,1.05 -4.38,1.05 z m 0,-3.66 c 0.76,0 1.47,-0.18 2.13,-0.54 0.68,-0.38 1.22,-0.94 1.62,-1.68 0.4,-0.74 0.6,-1.64 0.6,-2.7 0,-1.58 -0.42,-2.79 -1.26,-3.63 -0.82,-0.86 -1.83,-1.29 -3.03,-1.29 -1.2,0 -2.21,0.43 -3.03,1.29 -0.8,0.84 -1.2,2.05 -1.2,3.63 0,1.58 0.39,2.8 1.17,3.66 0.8,0.84 1.8,1.26 3,1.26 z M 85.145,8.96 c 0.54,-0.88 1.24,-1.57 2.1,-2.07 0.88,-0.5 1.88,-0.75 3,-0.75 v 4.41 h -1.11 c -1.32,0 -2.32,0.31 -3,0.93 -0.66,0.62 -0.99,1.7 -0.99,3.24 V 23 h -4.2 V 6.38 h 4.2 z m 22.397,-6.9 c 2.2,0 4.13,0.43 5.79,1.29 1.68,0.86 2.97,2.09 3.87,3.69 0.92,1.58 1.38,3.42 1.38,5.52 0,2.1 -0.46,3.94 -1.38,5.52 -0.9,1.56 -2.19,2.77 -3.87,3.63 -1.66,0.86 -3.59,1.29 -5.79,1.29 h -7.32 V 2.06 Z m -0.15,17.37 c 2.2,0 3.9,-0.6 5.1,-1.8 1.2,-1.2 1.8,-2.89 1.8,-5.07 0,-2.18 -0.6,-3.88 -1.8,-5.1 -1.2,-1.24 -2.9,-1.86 -5.1,-1.86 h -2.97 v 13.83 z m 29.784,-5.1 c 0,0.6 -0.04,1.14 -0.12,1.62 h -12.15 c 0.1,1.2 0.52,2.14 1.26,2.82 0.74,0.68 1.65,1.02 2.73,1.02 1.56,0 2.67,-0.67 3.33,-2.01 h 4.53 c -0.48,1.6 -1.4,2.92 -2.76,3.96 -1.36,1.02 -3.03,1.53 -5.01,1.53 -1.6,0 -3.04,-0.35 -4.32,-1.05 -1.26,-0.72 -2.25,-1.73 -2.97,-3.03 -0.7,-1.3 -1.05,-2.8 -1.05,-4.5 0,-1.72 0.35,-3.23 1.05,-4.53 0.7,-1.3 1.68,-2.3 2.94,-3 1.26,-0.7 2.71,-1.05 4.35,-1.05 1.58,0 2.99,0.34 4.23,1.02 1.26,0.68 2.23,1.65 2.91,2.91 0.7,1.24 1.05,2.67 1.05,4.29 z m -4.35,-1.2 c -0.02,-1.08 -0.41,-1.94 -1.17,-2.58 -0.76,-0.66 -1.69,-0.99 -2.79,-0.99 -1.04,0 -1.92,0.32 -2.64,0.96 -0.7,0.62 -1.13,1.49 -1.29,2.61 z m 6.336,1.5 c 0,-1.68 0.33,-3.17 0.99,-4.47 0.68,-1.3 1.59,-2.3 2.73,-3 1.16,-0.7 2.45,-1.05 3.87,-1.05 1.24,0 2.32,0.25 3.24,0.75 0.94,0.5 1.69,1.13 2.25,1.89 V 6.38 h 4.23 V 23 h -4.23 v -2.43 c -0.54,0.78 -1.29,1.43 -2.25,1.95 -0.94,0.5 -2.03,0.75 -3.27,0.75 -1.4,0 -2.68,-0.36 -3.84,-1.08 -1.14,-0.72 -2.05,-1.73 -2.73,-3.03 -0.66,-1.32 -0.99,-2.83 -0.99,-4.53 z m 13.08,0.06 c 0,-1.02 -0.2,-1.89 -0.6,-2.61 -0.4,-0.74 -0.94,-1.3 -1.62,-1.68 -0.68,-0.4 -1.41,-0.6 -2.19,-0.6 -0.78,0 -1.5,0.19 -2.16,0.57 -0.66,0.38 -1.2,0.94 -1.62,1.68 -0.4,0.72 -0.6,1.58 -0.6,2.58 0,1 0.2,1.88 0.6,2.64 0.42,0.74 0.96,1.31 1.62,1.71 0.68,0.4 1.4,0.6 2.16,0.6 0.78,0 1.51,-0.19 2.19,-0.57 0.68,-0.4 1.22,-0.96 1.62,-1.68 0.4,-0.74 0.6,-1.62 0.6,-2.64 z M 164.774,0.8 V 23 h -4.2 V 0.8 Z m 19.6,13.53 c 0,0.6 -0.04,1.14 -0.12,1.62 h -12.15 c 0.1,1.2 0.52,2.14 1.26,2.82 0.74,0.68 1.65,1.02 2.73,1.02 1.56,0 2.67,-0.67 3.33,-2.01 h 4.53 c -0.48,1.6 -1.4,2.92 -2.76,3.96 -1.36,1.02 -3.03,1.53 -5.01,1.53 -1.6,0 -3.04,-0.35 -4.32,-1.05 -1.26,-0.72 -2.25,-1.73 -2.97,-3.03 -0.7,-1.3 -1.05,-2.8 -1.05,-4.5 0,-1.72 0.35,-3.23 1.05,-4.53 0.7,-1.3 1.68,-2.3 2.94,-3 1.26,-0.7 2.71,-1.05 4.35,-1.05 1.58,0 2.99,0.34 4.23,1.02 1.26,0.68 2.23,1.65 2.91,2.91 0.7,1.24 1.05,2.67 1.05,4.29 z m -4.35,-1.2 c -0.02,-1.08 -0.41,-1.94 -1.17,-2.58 -0.76,-0.66 -1.69,-0.99 -2.79,-0.99 -1.04,0 -1.92,0.32 -2.64,0.96 -0.7,0.62 -1.13,1.49 -1.29,2.61 z m 11.615,-4.17 c 0.54,-0.88 1.24,-1.57 2.1,-2.07 0.88,-0.5 1.88,-0.75 3,-0.75 v 4.41 h -1.11 c -1.32,0 -2.32,0.31 -3,0.93 -0.66,0.62 -0.99,1.7 -0.99,3.24 V 23 h -4.2 V 6.38 h 4.2 z"
       fill="#1e2772"
       id="path1" />
  </g>
</svg>
